<svg version="1.1" xmlns="http://www.w3.org/2000/svg" viewBox="0 0 844.3239658954576 540.1602543421304" width="2532.971897686373" height="1620.4807630263913">
  <!-- svg-source:excalidraw -->
  
  <defs>
    <style class="style-fonts">
      @font-face {
        font-family: "Virgil";
        src: url("https://excalidraw.com/Virgil.woff2");
      }
      @font-face {
        font-family: "Cascadia";
        src: url("https://excalidraw.com/Cascadia.woff2");
      }
    </style>
    
  </defs>
  <rect x="0" y="0" width="844.3239658954576" height="540.1602543421304" fill="#ffffff"></rect><g stroke-linecap="round" transform="translate(10 10) rotate(0 272.5 232.5)"><path d="M32 0 M32 0 C179.84 -0.11, 327.55 -0.49, 513 0 M513 0 C533.54 1.18, 545.66 10.96, 545 32 M545 32 C545.79 184.8, 545.29 337.68, 545 433 M545 433 C543.18 456.18, 536.02 466.61, 513 465 M513 465 C404.38 463.37, 294.43 463.18, 32 465 M32 465 C11.31 465.04, 1.37 454.36, 0 433 M0 433 C-0.69 312.01, -1.54 189.84, 0 32 M0 32 C0.9 10.69, 11.51 -0.66, 32 0" stroke="#000000" stroke-width="1.5" fill="none" stroke-dasharray="8 9"></path></g><g transform="translate(15 15) rotate(0 42.879974365234375 12.5)"><text x="0" y="0" font-family="Virgil, Segoe UI Emoji" font-size="20px" fill="#000000" text-anchor="start" style="white-space: pre;" direction="ltr" dominant-baseline="text-before-edge">Tenant 1</text></g><g stroke-linecap="round" transform="translate(269.50336888549964 164.768526041712) rotate(0 133 82)"><path d="M32 0 M32 0 C94.83 1.6, 159.69 0.81, 234 0 M32 0 C108.96 0.79, 185.77 0.48, 234 0 M234 0 C253.52 1.85, 267.69 12.28, 266 32 M234 0 C253.65 -1.29, 264.53 11.75, 266 32 M266 32 C266.04 58.55, 266.77 85.05, 266 132 M266 32 C266.97 63.4, 266.22 93.76, 266 132 M266 132 C266.9 153.36, 256.18 163.34, 234 164 M266 132 C266.23 152.8, 255.3 163, 234 164 M234 164 C177.11 165.12, 117.84 165.16, 32 164 M234 164 C167.59 162.79, 101.13 162.85, 32 164 M32 164 C9.17 165.21, 0.94 154.86, 0 132 M32 164 C8.96 165.33, 2.03 152.6, 0 132 M0 132 C1.51 106.24, 1.54 77.62, 0 32 M0 132 C0.01 105.07, 0.37 78.5, 0 32 M0 32 C1.92 12.66, 11.44 1.09, 32 0 M0 32 C-0.37 12.42, 12.01 0.92, 32 0" stroke="#000000" stroke-width="1" fill="none"></path></g><g transform="translate(274.50336888549964 169.768526041712) rotate(0 15.0159912109375 10)"><text x="0" y="0" font-family="Virgil, Segoe UI Emoji" font-size="16px" fill="#000000" text-anchor="start" style="white-space: pre;" direction="ltr" dominant-baseline="text-before-edge">AKS</text></g><g stroke-linecap="round" transform="translate(298.81616844340033 199.6968457485118) rotate(0 104.5 59)"><path d="M29.5 0 M29.5 0 C84.99 0.74, 135.92 -0.77, 179.5 0 M29.5 0 C67.5 2.05, 108.16 1.93, 179.5 0 M179.5 0 C197.7 -1.12, 207.72 10.78, 209 29.5 M179.5 0 C198.36 -1.38, 207.69 10.57, 209 29.5 M209 29.5 C209.49 48.38, 211.01 66.04, 209 88.5 M209 29.5 C209.27 52.88, 209.24 75.9, 209 88.5 M209 88.5 C209.2 107.7, 199.14 117.13, 179.5 118 M209 88.5 C208.69 109.14, 199.26 119.29, 179.5 118 M179.5 118 C126.29 117.85, 70.56 119.08, 29.5 118 M179.5 118 C133.56 118.73, 89.58 118.88, 29.5 118 M29.5 118 C8.35 119.15, 1.76 107.53, 0 88.5 M29.5 118 C8.98 118.13, 0.14 109.97, 0 88.5 M0 88.5 C-1.2 68.12, -0.1 48.88, 0 29.5 M0 88.5 C1.07 75.13, 0.5 60.32, 0 29.5 M0 29.5 C-0.32 11.36, 11.01 0.8, 29.5 0 M0 29.5 C1.55 11.69, 10.24 1.56, 29.5 0" stroke="#000000" stroke-width="1" fill="none"></path></g><g transform="translate(389.04418052836127 292.6968457485118) rotate(0 14.271987915039062 10)"><text x="14.271987915039062" y="0" font-family="Virgil, Segoe UI Emoji" font-size="16px" fill="#000000" text-anchor="middle" style="white-space: pre;" direction="ltr" dominant-baseline="text-before-edge">Pod</text></g><g stroke-linecap="round" transform="translate(350.62361711486164 211.74077553606458) rotate(0 52 35)"><path d="M17.5 0 M17.5 0 C40.72 -1.24, 64.06 -1.63, 86.5 0 M17.5 0 C43.83 -1.12, 71 -0.08, 86.5 0 M86.5 0 C97.47 -1.2, 102.86 6.48, 104 17.5 M86.5 0 C98.21 1.58, 104.03 5.94, 104 17.5 M104 17.5 C106.2 29.23, 106.04 43.08, 104 52.5 M104 17.5 C104.25 27.81, 104.13 38.15, 104 52.5 M104 52.5 C103.73 65.01, 98.25 71.12, 86.5 70 M104 52.5 C105.35 63.69, 99.56 70.67, 86.5 70 M86.5 70 C69.47 70.28, 52.54 68.56, 17.5 70 M86.5 70 C60.88 71.1, 37.62 70.21, 17.5 70 M17.5 70 C5.09 70.11, 0.12 65.73, 0 52.5 M17.5 70 C6.44 71.83, -2.08 63.33, 0 52.5 M0 52.5 C-1.2 43.57, -1.62 37.34, 0 17.5 M0 52.5 C-0.3 39.28, 0.45 24.93, 0 17.5 M0 17.5 C1.35 7.44, 6.19 1.35, 17.5 0 M0 17.5 C0.99 7.71, 4.24 2.02, 17.5 0" stroke="#000000" stroke-width="1" fill="none"></path></g><g transform="translate(355.94363969786946 216.74077553606458) rotate(0 46.67997741699219 30)"><text x="46.67997741699219" y="0" font-family="Virgil, Segoe UI Emoji" font-size="16px" fill="#000000" text-anchor="middle" style="white-space: pre;" direction="ltr" dominant-baseline="text-before-edge">Kubernetes </text><text x="46.67997741699219" y="20" font-family="Virgil, Segoe UI Emoji" font-size="16px" fill="#000000" text-anchor="middle" style="white-space: pre;" direction="ltr" dominant-baseline="text-before-edge">Service </text><text x="46.67997741699219" y="40" font-family="Virgil, Segoe UI Emoji" font-size="16px" fill="#000000" text-anchor="middle" style="white-space: pre;" direction="ltr" dominant-baseline="text-before-edge">Account</text></g><g stroke-linecap="round" transform="translate(83.92508602522821 370.9143176372236) rotate(0 54.385825863675336 49.00431747265111)"><path d="M24.5 0 M24.5 0 C40.02 2.23, 53.46 -0.92, 84.27 0 M24.5 0 C38.73 -0.88, 53.09 0.04, 84.27 0 M84.27 0 C100.65 1.37, 108.8 8.26, 108.77 24.5 M84.27 0 C101.81 1.84, 109.8 10.38, 108.77 24.5 M108.77 24.5 C109.23 38.54, 108.55 51.1, 108.77 73.51 M108.77 24.5 C108.63 38.49, 108.81 52.2, 108.77 73.51 M108.77 73.51 C109.94 89.43, 101.82 98.59, 84.27 98.01 M108.77 73.51 C107.56 88.29, 100.8 98.04, 84.27 98.01 M84.27 98.01 C66.88 98.5, 48.59 96.08, 24.5 98.01 M84.27 98.01 C62.52 97.87, 41.58 98.6, 24.5 98.01 M24.5 98.01 C8.7 99.6, -1.81 89.11, 0 73.51 M24.5 98.01 C6.88 98.43, -1.27 88.54, 0 73.51 M0 73.51 C2.37 60.53, 1.47 45.68, 0 24.5 M0 73.51 C0.39 55.87, -0.11 37.3, 0 24.5 M0 24.5 C0.86 9.8, 6.78 1.75, 24.5 0 M0 24.5 C1.03 8.43, 9.34 0.3, 24.5 0" stroke="#000000" stroke-width="1" fill="none"></path></g><g transform="translate(103.35893129808301 399.91863510987514) rotate(0 34.95198059082031 20)"><text x="34.95198059082031" y="0" font-family="Virgil, Segoe UI Emoji" font-size="16px" fill="#000000" text-anchor="middle" style="white-space: pre;" direction="ltr" dominant-baseline="text-before-edge">Azure </text><text x="34.95198059082031" y="20" font-family="Virgil, Segoe UI Emoji" font-size="16px" fill="#000000" text-anchor="middle" style="white-space: pre;" direction="ltr" dominant-baseline="text-before-edge">Resource</text></g><g stroke-linecap="round" transform="translate(71.62111104176438 248.80945959640758) rotate(0 66.5 42.5)"><path d="M21.25 0 M21.25 0 C54.91 -0.61, 91.76 -0.03, 111.75 0 M21.25 0 C42.99 0.39, 64.71 -0.25, 111.75 0 M111.75 0 C126.97 1.6, 133.9 9, 133 21.25 M111.75 0 C125.21 2.02, 134.03 7.11, 133 21.25 M133 21.25 C132.4 35.77, 131.99 50.07, 133 63.75 M133 21.25 C133.6 35.59, 133.62 50.64, 133 63.75 M133 63.75 C131.94 76.56, 126.09 85.03, 111.75 85 M133 63.75 C133.26 78.11, 124.2 86.39, 111.75 85 M111.75 85 C81.5 86.09, 48.31 83.59, 21.25 85 M111.75 85 C84.37 86.51, 55.55 85.34, 21.25 85 M21.25 85 C5.96 85.37, -1.1 76.79, 0 63.75 M21.25 85 C6.64 83.21, 2.21 80.21, 0 63.75 M0 63.75 C1.3 50.52, 0.57 36.3, 0 21.25 M0 63.75 C0.36 48.39, -0.77 32.28, 0 21.25 M0 21.25 C0.89 7.31, 8.1 0.26, 21.25 0 M0 21.25 C0.99 6.26, 8.64 -1.84, 21.25 0" stroke="#000000" stroke-width="1" fill="none"></path></g><g transform="translate(76.65715230153 271.3094595964076) rotate(0 61.463958740234375 20)"><text x="61.463958740234375" y="0" font-family="Virgil, Segoe UI Emoji" font-size="16px" fill="#000000" text-anchor="middle" style="white-space: pre;" direction="ltr" dominant-baseline="text-before-edge">Role Assignment</text><text x="61.463958740234375" y="20" font-family="Virgil, Segoe UI Emoji" font-size="16px" fill="#000000" text-anchor="middle" style="white-space: pre;" direction="ltr" dominant-baseline="text-before-edge">(permissions)</text></g><g stroke-linecap="round" transform="translate(46.34857161986065 38.25441816572129) rotate(0 90 81)"><path d="M32 0 M32 0 C58.2 -0.73, 87.43 0.45, 148 0 M32 0 C75.28 0.75, 117.95 0.91, 148 0 M148 0 C168.72 1.76, 180.9 10.69, 180 32 M148 0 C170.3 -0.75, 180.23 10.13, 180 32 M180 32 C180.42 61.35, 180.69 91.72, 180 130 M180 32 C180.07 58.7, 180.68 86.77, 180 130 M180 130 C180.23 151.5, 167.84 163.21, 148 162 M180 130 C181.08 153.08, 167.63 163.33, 148 162 M148 162 C103.08 161.69, 59.51 162.1, 32 162 M148 162 C103.39 161.76, 59.34 161.01, 32 162 M32 162 C10.28 160.45, 1.92 153.32, 0 130 M32 162 C11.56 163.25, -0.37 153.09, 0 130 M0 130 C1.22 95.21, 0.96 60.57, 0 32 M0 130 C1.12 92.71, 1.19 55.33, 0 32 M0 32 C0.86 9.95, 12.02 -1.6, 32 0 M0 32 C1.09 10.59, 8.56 1.05, 32 0" stroke="#000000" stroke-width="1" fill="none"></path></g><g transform="translate(66.05409224974346 43.25441816572129) rotate(0 70.29447937011719 30.262267180281924)"><text x="70.29447937011719" y="0" font-family="Virgil, Segoe UI Emoji" font-size="16.139875829483795px" fill="#000000" text-anchor="middle" style="white-space: pre;" direction="ltr" dominant-baseline="text-before-edge">Service Principal</text><text x="70.29447937011719" y="20.174844786854745" font-family="Virgil, Segoe UI Emoji" font-size="16.139875829483795px" fill="#000000" text-anchor="middle" style="white-space: pre;" direction="ltr" dominant-baseline="text-before-edge">(Multitenant App </text><text x="70.29447937011719" y="40.34968957370949" font-family="Virgil, Segoe UI Emoji" font-size="16.139875829483795px" fill="#000000" text-anchor="middle" style="white-space: pre;" direction="ltr" dominant-baseline="text-before-edge">registration)</text></g><g stroke-linecap="round" transform="translate(81.08870294091184 119.25465371969767) rotate(0 52.958967565493595 35.30597837699588)"><path d="M17.65 0 M17.65 0 C36.19 0.01, 52.07 1.04, 88.26 0 M17.65 0 C44.19 0.2, 71.78 -0.67, 88.26 0 M88.26 0 C100.88 -0.66, 106.12 5.42, 105.92 17.65 M88.26 0 C100 -1, 105.61 6.86, 105.92 17.65 M105.92 17.65 C105.7 29.6, 106.7 38.06, 105.92 52.96 M105.92 17.65 C106.06 25.94, 105.2 34.67, 105.92 52.96 M105.92 52.96 C106.86 66.25, 98.55 71.76, 88.26 70.61 M105.92 52.96 C107.95 63.99, 99.18 70.74, 88.26 70.61 M88.26 70.61 C68.24 68.99, 44.3 69.68, 17.65 70.61 M88.26 70.61 C65.58 69.44, 44.24 71.21, 17.65 70.61 M17.65 70.61 C6.66 71.7, -0.32 66.25, 0 52.96 M17.65 70.61 C7.23 71.53, 1.55 66.58, 0 52.96 M0 52.96 C1.39 40.36, 1.52 31.42, 0 17.65 M0 52.96 C0.25 41.61, 0.5 30.17, 0 17.65 M0 17.65 C0.95 5.82, 4.06 0.91, 17.65 0 M0 17.65 C-2.21 4.24, 4.48 -0.2, 17.65 0" stroke="#000000" stroke-width="1" fill="none"></path></g><g transform="translate(89.56923117535098 124.29836491641163) rotate(0 44.47843933105469 30.262267180281924)"><text x="44.47843933105469" y="0" font-family="Virgil, Segoe UI Emoji" font-size="16.139875829483795px" fill="#000000" text-anchor="middle" style="white-space: pre;" direction="ltr" dominant-baseline="text-before-edge">Federated </text><text x="44.47843933105469" y="20.174844786854745" font-family="Virgil, Segoe UI Emoji" font-size="16.139875829483795px" fill="#000000" text-anchor="middle" style="white-space: pre;" direction="ltr" dominant-baseline="text-before-edge">Identity </text><text x="44.47843933105469" y="40.34968957370949" font-family="Virgil, Segoe UI Emoji" font-size="16.139875829483795px" fill="#000000" text-anchor="middle" style="white-space: pre;" direction="ltr" dominant-baseline="text-before-edge">Credential</text></g><g stroke-linecap="round" transform="translate(595.3239658954576 20.344052439355437) rotate(0 119.5 228.5)"><path d="M32 0 M32 0 C86.34 -0.02, 139.4 -1.53, 207 0 M207 0 C230.09 0.9, 239.02 11.51, 239 32 M239 32 C239.21 136.51, 239.07 242.52, 239 425 M239 425 C239.08 447.45, 229.51 456.59, 207 457 M207 457 C142.55 456.25, 80.83 456.3, 32 457 M32 457 C10.83 455.5, 1.21 447.27, 0 425 M0 425 C2.71 276.81, 1.26 129.41, 0 32 M0 32 C0.12 12.23, 11.2 1.6, 32 0" stroke="#000000" stroke-width="1.5" fill="none" stroke-dasharray="8 9"></path></g><g transform="translate(600.3239658954576 25.344052439355437) rotate(0 47.28997039794922 12.5)"><text x="0" y="0" font-family="Virgil, Segoe UI Emoji" font-size="20px" fill="#000000" text-anchor="start" style="white-space: pre;" direction="ltr" dominant-baseline="text-before-edge">Tenant 2</text></g><g stroke-linecap="round" transform="translate(659.8420347588635 349.1353805430199) rotate(0 54.385825863675336 49.004317472651564)"><path d="M24.5 0 M24.5 0 C46.87 1.08, 65.75 1.03, 84.27 0 M24.5 0 C40.46 -0.3, 56.31 0.56, 84.27 0 M84.27 0 C100.68 1.12, 109.94 7.75, 108.77 24.5 M84.27 0 C102 0.67, 107.56 6.61, 108.77 24.5 M108.77 24.5 C108.94 38.12, 109.99 55.67, 108.77 73.51 M108.77 24.5 C109.29 42.62, 108.04 61.42, 108.77 73.51 M108.77 73.51 C108.89 91.41, 101.13 99.6, 84.27 98.01 M108.77 73.51 C106.69 89, 99.32 98.43, 84.27 98.01 M84.27 98.01 C68.07 99.81, 56.97 98.67, 24.5 98.01 M84.27 98.01 C63.68 98.87, 42.59 99.27, 24.5 98.01 M24.5 98.01 C8.52 99.36, 0.86 91.47, 0 73.51 M24.5 98.01 C6.58 100.03, 1.03 90.1, 0 73.51 M0 73.51 C-0.78 57.67, -1.67 40.08, 0 24.5 M0 73.51 C-0.51 58.25, -0.16 44.35, 0 24.5 M0 24.5 C1.93 6.99, 7.39 -1.61, 24.5 0 M0 24.5 C-1.24 7.69, 8.53 -1, 24.5 0" stroke="#000000" stroke-width="1" fill="none"></path></g><g transform="translate(679.2758800317183 378.13969801567146) rotate(0 34.95198059082031 20)"><text x="34.95198059082031" y="0" font-family="Virgil, Segoe UI Emoji" font-size="16px" fill="#000000" text-anchor="middle" style="white-space: pre;" direction="ltr" dominant-baseline="text-before-edge">Azure </text><text x="34.95198059082031" y="20" font-family="Virgil, Segoe UI Emoji" font-size="16px" fill="#000000" text-anchor="middle" style="white-space: pre;" direction="ltr" dominant-baseline="text-before-edge">Resource</text></g><g stroke-linecap="round" transform="translate(647.4180011243648 223.7174039007723) rotate(0 66.5 42.5)"><path d="M21.25 0 M21.25 0 C51.79 -0.18, 83.19 -0.41, 111.75 0 M21.25 0 C44.5 0.18, 68.25 -0.59, 111.75 0 M111.75 0 C127.13 0.58, 131.94 5.73, 133 21.25 M111.75 0 C126.11 0.03, 133.26 7.27, 133 21.25 M133 21.25 C134.78 29.34, 134.41 42.15, 133 63.75 M133 21.25 C132.9 33.42, 133.11 44.83, 133 63.75 M133 63.75 C131.19 77.19, 124.8 85.37, 111.75 85 M133 63.75 C131.73 76.62, 125.47 83.21, 111.75 85 M111.75 85 C77 85.03, 41.6 86.52, 21.25 85 M111.75 85 C81.15 86.41, 50.62 86.55, 21.25 85 M21.25 85 C5.7 86.75, 0.89 78.14, 0 63.75 M21.25 85 C8.25 85.3, 0.99 77.09, 0 63.75 M0 63.75 C0.27 46.3, 1.25 30.59, 0 21.25 M0 63.75 C1.22 53.46, -0.13 43.54, 0 21.25 M0 21.25 C-1.08 6.66, 7.4 -0.87, 21.25 0 M0 21.25 C0.27 5.92, 6.61 -0.23, 21.25 0" stroke="#000000" stroke-width="1" fill="none"></path></g><g transform="translate(652.4540423841304 246.2174039007723) rotate(0 61.463958740234375 20)"><text x="61.463958740234375" y="0" font-family="Virgil, Segoe UI Emoji" font-size="16px" fill="#000000" text-anchor="middle" style="white-space: pre;" direction="ltr" dominant-baseline="text-before-edge">Role Assignment</text><text x="61.463958740234375" y="20" font-family="Virgil, Segoe UI Emoji" font-size="16px" fill="#000000" text-anchor="middle" style="white-space: pre;" direction="ltr" dominant-baseline="text-before-edge">(permissions)</text></g><g stroke-linecap="round"><g transform="translate(189.96598270549384 136.72907632987244) rotate(0 98.62395357580158 28.81589299450343)"><path d="M-0.02 -0.52 C26.07 -2.7, 123.74 -25.89, 156.62 -13.36 C189.5 -0.82, 190.38 60.16, 197.26 74.68" stroke="#000000" stroke-width="1.5" fill="none" stroke-dasharray="8 9"></path></g><g transform="translate(189.96598270549384 136.72907632987244) rotate(0 98.62395357580158 28.81589299450343)"><path d="M179.77 49.45 C186.58 57.53, 192.01 66.37, 196.85 75.9" stroke="#000000" stroke-width="1.5" fill="none"></path></g><g transform="translate(189.96598270549384 136.72907632987244) rotate(0 98.62395357580158 28.81589299450343)"><path d="M199.71 44.6 C200.33 54.19, 199.58 64.52, 196.85 75.9" stroke="#000000" stroke-width="1.5" fill="none"></path></g></g><mask></mask><g stroke-linecap="round"><g transform="translate(139.51099150358777 246.8705932373514) rotate(0 -1.2865241220854386 -19.938396932209344)"><path d="M-0.16 0.51 C-0.56 -6.14, -2.15 -33.42, -2.41 -40.38" stroke="#000000" stroke-width="1.5" fill="none" stroke-dasharray="8 9"></path></g><g transform="translate(139.51099150358777 246.8705932373514) rotate(0 -1.2865241220854386 -19.938396932209344)"><path d="M6.42 -21.35 C4.39 -25.93, 0.47 -31.55, -1.83 -41.44" stroke="#000000" stroke-width="1.5" fill="none"></path></g><g transform="translate(139.51099150358777 246.8705932373514) rotate(0 -1.2865241220854386 -19.938396932209344)"><path d="M-7.63 -20.65 C-5.46 -25.42, -5.18 -31.25, -1.83 -41.44" stroke="#000000" stroke-width="1.5" fill="none"></path></g></g><mask></mask><g stroke-linecap="round"><g transform="translate(139.05266153610046 337.70375741306) rotate(0 0.1434018470617957 15.445386171666996)"><path d="M0.05 0.67 C0.11 5.62, 0.2 25.19, 0.24 30.22" stroke="#000000" stroke-width="1.5" fill="none" stroke-dasharray="8 9"></path></g><g transform="translate(139.05266153610046 337.70375741306) rotate(0 0.1434018470617957 15.445386171666996)"><path d="M-4.2 16.83 C-3.79 20.95, -1.52 23.32, -0.79 30.35" stroke="#000000" stroke-width="1.5" fill="none"></path></g><g transform="translate(139.05266153610046 337.70375741306) rotate(0 0.1434018470617957 15.445386171666996)"><path d="M6.22 16.77 C3.64 20.91, 2.93 23.29, -0.79 30.35" stroke="#000000" stroke-width="1.5" fill="none"></path></g></g><mask></mask><g stroke-linecap="round" transform="translate(623.0764463128644 76.2136199685865) rotate(0 95.5 49)"><path d="M24.5 0 M24.5 0 C67.25 0.38, 111.42 -1.89, 166.5 0 M24.5 0 C57.61 0.06, 89.75 0.59, 166.5 0 M166.5 0 C183.77 1.52, 189.52 9.32, 191 24.5 M166.5 0 C184.86 -0.73, 190.15 8.29, 191 24.5 M191 24.5 C192.98 37.69, 190.66 53.38, 191 73.5 M191 24.5 C190.54 39.33, 191.69 56.71, 191 73.5 M191 73.5 C191.78 90.92, 182.51 99.53, 166.5 98 M191 73.5 C192.35 90.76, 184.39 99.85, 166.5 98 M166.5 98 C123.03 97.23, 78.05 99.5, 24.5 98 M166.5 98 C122.72 97.83, 78.74 97.39, 24.5 98 M24.5 98 C9.12 97.93, -1.83 90.75, 0 73.5 M24.5 98 C5.96 96.35, -1.4 89.63, 0 73.5 M0 73.5 C-1.32 53, -0.13 34.96, 0 24.5 M0 73.5 C-0.26 60.83, 0.84 47.57, 0 24.5 M0 24.5 C-0.65 9.57, 8.45 -1.48, 24.5 0 M0 24.5 C-1.54 8.42, 9.45 -0.95, 24.5 0" stroke="#000000" stroke-width="1" fill="none"></path></g><g transform="translate(628.9844892205792 81.2136199685865) rotate(0 89.59195709228516 40)"><text x="89.59195709228516" y="0" font-family="Virgil, Segoe UI Emoji" font-size="16px" fill="#000000" text-anchor="middle" style="white-space: pre;" direction="ltr" dominant-baseline="text-before-edge">Service Principal</text><text x="89.59195709228516" y="20" font-family="Virgil, Segoe UI Emoji" font-size="16px" fill="#000000" text-anchor="middle" style="white-space: pre;" direction="ltr" dominant-baseline="text-before-edge">(Created using Tenant</text><text x="89.59195709228516" y="40" font-family="Virgil, Segoe UI Emoji" font-size="16px" fill="#000000" text-anchor="middle" style="white-space: pre;" direction="ltr" dominant-baseline="text-before-edge">1's multitenant App </text><text x="89.59195709228516" y="60" font-family="Virgil, Segoe UI Emoji" font-size="16px" fill="#000000" text-anchor="middle" style="white-space: pre;" direction="ltr" dominant-baseline="text-before-edge">registration client ID)</text></g><g stroke-linecap="round"><g transform="translate(712.9591245801021 219.26442488970952) rotate(0 0.9459078434272215 -19.058425808806533)"><path d="M-0.9 0.73 C-0.46 -5.76, 2.42 -32.21, 2.79 -38.84" stroke="#000000" stroke-width="1.5" fill="none" stroke-dasharray="8 9"></path></g><g transform="translate(712.9591245801021 219.26442488970952) rotate(0 0.9459078434272215 -19.058425808806533)"><path d="M9.19 -18.69 C7.86 -27.12, 5.88 -29.87, 2.15 -39.58" stroke="#000000" stroke-width="1.5" fill="none"></path></g><g transform="translate(712.9591245801021 219.26442488970952) rotate(0 0.9459078434272215 -19.058425808806533)"><path d="M-4.38 -19.85 C-1.48 -27.82, 0.76 -30.21, 2.15 -39.58" stroke="#000000" stroke-width="1.5" fill="none"></path></g></g><mask></mask><g stroke-linecap="round"><g transform="translate(715.3283053812556 312.10667492979974) rotate(0 -0.47193688385232235 18.692050130198822)"><path d="M0.56 0.91 C0.46 6.87, -1.49 30.72, -1.51 36.47" stroke="#000000" stroke-width="1.5" fill="none" stroke-dasharray="8 9"></path></g><g transform="translate(715.3283053812556 312.10667492979974) rotate(0 -0.47193688385232235 18.692050130198822)"><path d="M-5.45 18.06 C-4.48 24.78, -4.89 26.39, -1.41 36.58" stroke="#000000" stroke-width="1.5" fill="none"></path></g><g transform="translate(715.3283053812556 312.10667492979974) rotate(0 -0.47193688385232235 18.692050130198822)"><path d="M6.78 18.64 C4.99 25.3, 1.82 26.77, -1.41 36.58" stroke="#000000" stroke-width="1.5" fill="none"></path></g></g><mask></mask><g stroke-linecap="round"><g transform="translate(197.25873950598452 416.41491909778597) rotate(0 86.88756951262417 -46.63820632861689)"><path d="M-0.89 0.69 C15.53 -4.39, 69.83 -13.83, 99.09 -29.6 C128.35 -45.38, 161.98 -83.39, 174.67 -93.97 M0.84 0.01 C17.15 -4.99, 69.89 -12.83, 98.7 -28.27 C127.5 -43.7, 160.87 -81.47, 173.67 -92.62" stroke="#000000" stroke-width="1" fill="none"></path></g><g transform="translate(197.25873950598452 416.41491909778597) rotate(0 86.88756951262417 -46.63820632861689)"><path d="M24.98 -14.54 C14.74 -11.33, 6.91 -4.57, 0.67 1.22 M23.27 -16.12 C13.74 -10.51, 4.71 -4.26, 0.07 1.69" stroke="#000000" stroke-width="1" fill="none"></path></g><g transform="translate(197.25873950598452 416.41491909778597) rotate(0 86.88756951262417 -46.63820632861689)"><path d="M30.13 5.32 C17.95 1.6, 8.34 1.47, 0.67 1.22 M28.41 3.74 C17.11 1.8, 6.12 0.5, 0.07 1.69" stroke="#000000" stroke-width="1" fill="none"></path></g><g transform="translate(197.25873950598452 416.41491909778597) rotate(0 86.88756951262417 -46.63820632861689)"><path d="M161.73 -63.86 C164.27 -75.63, 169.56 -84.14, 175.23 -92.09 M160.01 -65.44 C165.24 -76.39, 170.57 -86.85, 174.63 -91.62" stroke="#000000" stroke-width="1" fill="none"></path></g><g transform="translate(197.25873950598452 416.41491909778597) rotate(0 86.88756951262417 -46.63820632861689)"><path d="M147.44 -78.59 C155.05 -85.15, 165.3 -88.54, 175.23 -92.09 M145.73 -80.17 C156.24 -85.48, 167 -90.34, 174.63 -91.62" stroke="#000000" stroke-width="1" fill="none"></path></g></g><mask></mask><g stroke-linecap="round"><g transform="translate(656.4786813675269 399.65971626963346) rotate(0 -110.69318522463914 -38.48539890007487)"><path d="M1.06 -0.38 C-26.28 -1.62, -127.79 5.92, -164.92 -6.75 C-202.05 -19.42, -212.29 -64.79, -221.72 -76.4 M0.15 -1.63 C-27.3 -2.72, -129 7.59, -166.1 -5.18 C-203.2 -17.95, -213.28 -66.04, -222.44 -78.25" stroke="#000000" stroke-width="1" fill="none"></path></g><g transform="translate(656.4786813675269 399.65971626963346) rotate(0 -110.69318522463914 -38.48539890007487)"><path d="M-27.74 9.22 C-20.69 7.5, -12.88 5.57, 2.65 -2.19 M-27.65 9.4 C-19.81 6.41, -11.24 5.45, 1.45 0.16" stroke="#000000" stroke-width="1" fill="none"></path></g><g transform="translate(656.4786813675269 399.65971626963346) rotate(0 -110.69318522463914 -38.48539890007487)"><path d="M-27.8 -11.3 C-20.62 -8.39, -12.79 -5.68, 2.65 -2.19 M-27.71 -11.12 C-19.98 -8.7, -11.38 -4.25, 1.45 0.16" stroke="#000000" stroke-width="1" fill="none"></path></g><g transform="translate(656.4786813675269 399.65971626963346) rotate(0 -110.69318522463914 -38.48539890007487)"><path d="M-201.46 -58.2 C-205.71 -61.84, -209.14 -66.13, -220.85 -80.06 M-201.37 -58.02 C-206.6 -63.67, -211.14 -67.38, -222.06 -77.7" stroke="#000000" stroke-width="1" fill="none"></path></g><g transform="translate(656.4786813675269 399.65971626963346) rotate(0 -110.69318522463914 -38.48539890007487)"><path d="M-219.88 -49.16 C-220.03 -55, -219.3 -61.33, -220.85 -80.06 M-219.79 -48.99 C-220.11 -57.05, -219.8 -63.14, -222.06 -77.7" stroke="#000000" stroke-width="1" fill="none"></path></g></g><mask></mask><g mask="url(#mask--MEBuSeCOTCUFwHFADou4)" stroke-linecap="round"><g transform="translate(229.884987390707 63.14914047986076) rotate(0 196.75315818067133 8.692702510852087)"><path d="M0.65 -0.9 C33.85 -1.71, 133.55 -10, 198.92 -5.79 C264.29 -1.58, 360.5 19.19, 392.85 24.36" stroke="#2f9e44" stroke-width="1.5" fill="none" stroke-dasharray="1.5 7"></path></g><g transform="translate(229.884987390707 63.14914047986076) rotate(0 196.75315818067133 8.692702510852087)"><path d="M361.78 28.67 C370.08 27.75, 378.9 26.65, 393.41 24.43" stroke="#2f9e44" stroke-width="1.5" fill="none" stroke-dasharray="1.5 5"></path></g><g transform="translate(229.884987390707 63.14914047986076) rotate(0 196.75315818067133 8.692702510852087)"><path d="M365.46 8.48 C372.58 13.2, 380.39 17.71, 393.41 24.43" stroke="#2f9e44" stroke-width="1.5" fill="none" stroke-dasharray="1.5 5"></path></g></g><mask id="mask--MEBuSeCOTCUFwHFADou4"><rect x="0" y="0" fill="#fff" width="722.7879397366792" height="192.93332047932836"></rect><rect x="392.9999611186163" y="48.237820355027" fill="#000" width="72.47994995117188" height="20" opacity="1"></rect></mask><g transform="translate(392.9999611186163 48.237820355027) rotate(0 33.63818445276206 23.60402263568585)"><text x="36.23997497558594" y="0" font-family="Virgil, Segoe UI Emoji" font-size="16px" fill="#2f9e44" text-anchor="middle" style="white-space: pre;" direction="ltr" dominant-baseline="text-before-edge">Client ID</text></g><g transform="translate(321.29499096383006 490.16025434213043) rotate(0 141.2239227294922 20)"><text x="141.2239227294922" y="0" font-family="Virgil, Segoe UI Emoji" font-size="16px" fill="#1e1e1e" text-anchor="middle" style="white-space: pre;" direction="ltr" dominant-baseline="text-before-edge">Wokrload must specify tenant 2 ID</text><text x="141.2239227294922" y="20" font-family="Virgil, Segoe UI Emoji" font-size="16px" fill="#1e1e1e" text-anchor="middle" style="white-space: pre;" direction="ltr" dominant-baseline="text-before-edge">when obtaining access token</text></g><g stroke-linecap="round"><g transform="translate(514.1995854006432 484.17790499093917) rotate(0 -2.4482639941393245 -43.63653812760322)"><path d="M0.17 -1.03 C-0.7 -15.56, -4.01 -72.08, -5.07 -86.24" stroke="#1e1e1e" stroke-width="1.5" fill="none" stroke-dasharray="1.5 7"></path></g><g transform="translate(514.1995854006432 484.17790499093917) rotate(0 -2.4482639941393245 -43.63653812760322)"><path d="M5.3 -57.58 C3.89 -67.97, 0.56 -76.05, -6.03 -84.49" stroke="#1e1e1e" stroke-width="1.5" fill="none" stroke-dasharray="1.5 5"></path></g><g transform="translate(514.1995854006432 484.17790499093917) rotate(0 -2.4482639941393245 -43.63653812760322)"><path d="M-15.18 -56.24 C-10.22 -67.08, -7.16 -75.57, -6.03 -84.49" stroke="#1e1e1e" stroke-width="1.5" fill="none" stroke-dasharray="1.5 5"></path></g></g><mask></mask></svg>