<svg version="1.1" xmlns="http://www.w3.org/2000/svg" viewBox="0 0 841.1252143082625 485" width="2523.3756429247874" height="1455">
  <!-- svg-source:excalidraw -->
  
  <defs>
    <style class="style-fonts">
      @font-face {
        font-family: "Virgil";
        src: url("https://excalidraw.com/Virgil.woff2");
      }
      @font-face {
        font-family: "Cascadia";
        src: url("https://excalidraw.com/Cascadia.woff2");
      }
    </style>
  </defs>
  <rect x="0" y="0" width="841.1252143082625" height="485" fill="#ffffff"></rect><g stroke-linecap="round" transform="translate(10 10) rotate(0 272.5 232.5)"><path d="M32 0 M32 0 C152.78 1.27, 272.38 1.2, 513 0 M513 0 C533.44 0.91, 546.19 10.16, 545 32 M545 32 C542.61 137.36, 543.98 239.65, 545 433 M545 433 C544.24 453.96, 533.14 465.58, 513 465 M513 465 C382.33 467.05, 251.61 466.34, 32 465 M32 465 C8.83 463.07, 0.09 454.28, 0 433 M0 433 C-1.25 295.22, -0.84 159.25, 0 32 M0 32 C-1.79 11.71, 11.67 -0.47, 32 0" stroke="#000000" stroke-width="1.5" fill="none" stroke-dasharray="8 9"></path></g><g transform="translate(15 15) rotate(0 42.879974365234375 12.5)"><text x="0" y="0" font-family="Virgil, Segoe UI Emoji" font-size="20px" fill="#000000" text-anchor="start" style="white-space: pre;" direction="ltr" dominant-baseline="text-before-edge">Tenant 1</text></g><g stroke-linecap="round" transform="translate(268.31087930162494 163.69497242683337) rotate(0 133 82)"><path d="M32 0 M32 0 C81.72 2.2, 126.56 0.9, 234 0 M32 0 C88.56 -0.96, 146.3 -0.76, 234 0 M234 0 C256.48 -1.12, 265.51 8.83, 266 32 M234 0 C253.12 0.1, 265.94 11.63, 266 32 M266 32 C264.82 69.11, 266.97 102.48, 266 132 M266 32 C267.47 66.66, 266.7 102.77, 266 132 M266 132 C265.91 154.61, 254.84 162.02, 234 164 M266 132 C264.79 153.7, 253.14 163.6, 234 164 M234 164 C192.88 164.39, 149.26 166.35, 32 164 M234 164 C155.5 162.53, 76.82 162.19, 32 164 M32 164 C9.62 165.04, 0.65 152.61, 0 132 M32 164 C10.66 165.34, 0.48 152.93, 0 132 M0 132 C0.3 97.81, -2.58 61.19, 0 32 M0 132 C0.49 93.99, -0.14 56.74, 0 32 M0 32 C-1.21 9.09, 10.58 -0.5, 32 0 M0 32 C-0.45 10.14, 12.56 1.38, 32 0" stroke="#000000" stroke-width="1" fill="none"></path></g><g transform="translate(273.31087930162494 168.69497242683337) rotate(0 15.0159912109375 10)"><text x="0" y="0" font-family="Virgil, Segoe UI Emoji" font-size="16px" fill="#000000" text-anchor="start" style="white-space: pre;" direction="ltr" dominant-baseline="text-before-edge">AKS</text></g><g stroke-linecap="round" transform="translate(297.2293122254878 198.41984902877266) rotate(0 104.5 59)"><path d="M29.5 0 M29.5 0 C79.36 -0.62, 130.56 0, 179.5 0 M29.5 0 C67.81 -0.18, 104.73 -0.54, 179.5 0 M179.5 0 C197.24 0.09, 208.95 10.68, 209 29.5 M179.5 0 C200.58 -0.29, 209.29 8.62, 209 29.5 M209 29.5 C210.37 51.07, 208.86 72.56, 209 88.5 M209 29.5 C209.07 44.48, 208.87 57.2, 209 88.5 M209 88.5 C207.95 108.49, 197.26 117.65, 179.5 118 M209 88.5 C206.94 109.54, 200.59 119.74, 179.5 118 M179.5 118 C142.38 118.76, 100.68 119.25, 29.5 118 M179.5 118 C143.02 117.05, 107.91 116.17, 29.5 118 M29.5 118 C9.83 119.16, 0.42 107.81, 0 88.5 M29.5 118 C11.16 120.26, -1.63 109.64, 0 88.5 M0 88.5 C1.94 65.91, 0.07 44.58, 0 29.5 M0 88.5 C-0.44 74, 0.12 60.83, 0 29.5 M0 29.5 C-0.39 9.38, 11.48 1.2, 29.5 0 M0 29.5 C-2.21 9.75, 10.42 1.94, 29.5 0" stroke="#000000" stroke-width="1" fill="none"></path></g><g transform="translate(387.4573243104487 291.41984902877266) rotate(0 14.271987915039062 10)"><text x="14.271987915039062" y="0" font-family="Virgil, Segoe UI Emoji" font-size="16px" fill="#000000" text-anchor="middle" style="white-space: pre;" direction="ltr" dominant-baseline="text-before-edge">Pod</text></g><g stroke-linecap="round" transform="translate(349.52815424253504 210.46377881632543) rotate(0 52 35)"><path d="M17.5 0 M17.5 0 C33.12 1.69, 50.18 1.34, 86.5 0 M17.5 0 C33.36 0.68, 51.12 1.06, 86.5 0 M86.5 0 C99.39 -0.25, 104.25 4.78, 104 17.5 M86.5 0 C99.28 1.26, 101.94 7.04, 104 17.5 M104 17.5 C102.78 30.15, 104.52 41.94, 104 52.5 M104 17.5 C103.39 30.39, 102.96 42.79, 104 52.5 M104 52.5 C102.21 65.36, 99.41 71.51, 86.5 70 M104 52.5 C103.06 64.45, 99.73 72.05, 86.5 70 M86.5 70 C65.5 70.12, 44.97 69.04, 17.5 70 M86.5 70 C62.22 70.33, 38.14 69.58, 17.5 70 M17.5 70 C6.98 71.96, -1.42 65.45, 0 52.5 M17.5 70 C7.63 68.17, 0.81 65.85, 0 52.5 M0 52.5 C-1.28 41.94, -1.11 31.3, 0 17.5 M0 52.5 C-0.18 44.54, 0.84 37.63, 0 17.5 M0 17.5 C-1.92 5.76, 6.35 1.69, 17.5 0 M0 17.5 C1.7 4.27, 7.8 -1.33, 17.5 0" stroke="#000000" stroke-width="1" fill="none"></path></g><g transform="translate(354.84817682554285 215.46377881632543) rotate(0 46.67997741699219 30)"><text x="46.67997741699219" y="0" font-family="Virgil, Segoe UI Emoji" font-size="16px" fill="#000000" text-anchor="middle" style="white-space: pre;" direction="ltr" dominant-baseline="text-before-edge">Kubernetes </text><text x="46.67997741699219" y="20" font-family="Virgil, Segoe UI Emoji" font-size="16px" fill="#000000" text-anchor="middle" style="white-space: pre;" direction="ltr" dominant-baseline="text-before-edge">Service </text><text x="46.67997741699219" y="40" font-family="Virgil, Segoe UI Emoji" font-size="16px" fill="#000000" text-anchor="middle" style="white-space: pre;" direction="ltr" dominant-baseline="text-before-edge">Account</text></g><g stroke-linecap="round" transform="translate(81.77749983009653 344.6677084187495) rotate(0 54.385825863675336 49.00431747265111)"><path d="M24.5 0 M24.5 0 C42.03 -0.11, 59.02 0.6, 84.27 0 M24.5 0 C46.21 -0.55, 67.89 -0.88, 84.27 0 M84.27 0 C100.99 0.6, 108.68 9.44, 108.77 24.5 M84.27 0 C100.04 -2.27, 107.56 8.54, 108.77 24.5 M108.77 24.5 C109.88 35.78, 110.2 43.76, 108.77 73.51 M108.77 24.5 C108.97 39.29, 109.22 54.49, 108.77 73.51 M108.77 73.51 C108.82 87.89, 99.56 99.05, 84.27 98.01 M108.77 73.51 C109.52 89.01, 100.6 99.34, 84.27 98.01 M84.27 98.01 C67.05 96.93, 47.19 99.91, 24.5 98.01 M84.27 98.01 C70.96 98.25, 58.28 97.77, 24.5 98.01 M24.5 98.01 C7.6 96.83, -1.21 88.26, 0 73.51 M24.5 98.01 C8.06 97.43, -0.45 89.32, 0 73.51 M0 73.51 C-0.37 55.28, 1.39 37.51, 0 24.5 M0 73.51 C-0.69 63.09, 0.48 51.13, 0 24.5 M0 24.5 C1.96 9.27, 6.82 -0.47, 24.5 0 M0 24.5 C1.52 6.76, 9.91 1.88, 24.5 0" stroke="#000000" stroke-width="1" fill="none"></path></g><g transform="translate(92.32334461467008 383.67202589140106) rotate(0 43.83998107910156 10)"><text x="43.83998107910156" y="0" font-family="Virgil, Segoe UI Emoji" font-size="16px" fill="#000000" text-anchor="middle" style="white-space: pre;" direction="ltr" dominant-baseline="text-before-edge">Key Vault 1</text></g><g stroke-linecap="round" transform="translate(69.6633256937721 220.02247789807734) rotate(0 66.5 42.5)"><path d="M21.25 0 M21.25 0 C50.65 -2.23, 78.9 0.57, 111.75 0 M21.25 0 C46.48 0.82, 71.27 1.15, 111.75 0 M111.75 0 C125.42 -1.98, 131.95 7.4, 133 21.25 M111.75 0 C123.73 -0.4, 130.94 8.46, 133 21.25 M133 21.25 C133.56 38, 135.1 51.76, 133 63.75 M133 21.25 C133.07 30.84, 132.53 42.91, 133 63.75 M133 63.75 C133.65 77.2, 125.91 86.16, 111.75 85 M133 63.75 C133.48 77.51, 127.24 87.26, 111.75 85 M111.75 85 C89.42 86.41, 71.75 85.42, 21.25 85 M111.75 85 C86.12 83.8, 60.44 83.6, 21.25 85 M21.25 85 C6.99 84.5, -0.39 77.46, 0 63.75 M21.25 85 C8.98 86.38, -2.21 77.83, 0 63.75 M0 63.75 C-1.72 51.62, -1.52 35.52, 0 21.25 M0 63.75 C0.6 47.5, -1.06 29.91, 0 21.25 M0 21.25 C1.32 5.86, 8.6 1.63, 21.25 0 M0 21.25 C-2.08 5.48, 8.21 1.79, 21.25 0" stroke="#000000" stroke-width="1" fill="none"></path></g><g transform="translate(78.53936329142834 232.52247789807734) rotate(0 57.62396240234375 30)"><text x="57.62396240234375" y="0" font-family="Virgil, Segoe UI Emoji" font-size="16px" fill="#000000" text-anchor="middle" style="white-space: pre;" direction="ltr" dominant-baseline="text-before-edge">Key Vault </text><text x="57.62396240234375" y="20" font-family="Virgil, Segoe UI Emoji" font-size="16px" fill="#000000" text-anchor="middle" style="white-space: pre;" direction="ltr" dominant-baseline="text-before-edge">Access Policy: </text><text x="57.62396240234375" y="40" font-family="Virgil, Segoe UI Emoji" font-size="16px" fill="#000000" text-anchor="middle" style="white-space: pre;" direction="ltr" dominant-baseline="text-before-edge">Get Secrets</text></g><g stroke-linecap="round" transform="translate(46.89255570737987 69.41970551120721) rotate(0 89 57)"><path d="M28.5 0 M28.5 0 C68.43 -0.44, 103.83 -1, 149.5 0 M28.5 0 C65.84 0.81, 105.6 0.97, 149.5 0 M149.5 0 C167.69 0.24, 179.36 11.28, 178 28.5 M149.5 0 C168.2 -1.18, 178.27 8.11, 178 28.5 M178 28.5 C178.48 46.38, 176.72 62.96, 178 85.5 M178 28.5 C178.69 49.89, 177.41 69.96, 178 85.5 M178 85.5 C179.56 102.91, 169.2 115.47, 149.5 114 M178 85.5 C177.67 104.04, 169.29 112.44, 149.5 114 M149.5 114 C115.03 113.18, 83.22 112.87, 28.5 114 M149.5 114 C115 114.69, 82.67 115.57, 28.5 114 M28.5 114 C10.98 112.64, 1.71 103.34, 0 85.5 M28.5 114 C8.87 116.19, 2.06 105.33, 0 85.5 M0 85.5 C-0.79 64.13, -1.54 41.64, 0 28.5 M0 85.5 C1.01 64.52, 0.3 41.71, 0 28.5 M0 28.5 C-1.04 9.48, 10.31 1.31, 28.5 0 M0 28.5 C-1.47 11.48, 9.03 -0.75, 28.5 0" stroke="#000000" stroke-width="1" fill="none"></path></g><g transform="translate(76.28459977476268 74.41970551120721) rotate(0 59.60795593261719 10)"><text x="59.60795593261719" y="0" font-family="Virgil, Segoe UI Emoji" font-size="16px" fill="#000000" text-anchor="middle" style="white-space: pre;" direction="ltr" dominant-baseline="text-before-edge">Workload UAMI</text></g><g stroke-linecap="round" transform="translate(79.50791335409849 100.99446850347522) rotate(0 52.5 35)"><path d="M17.5 0 M17.5 0 C37.09 -1.54, 55.69 -1.43, 87.5 0 M17.5 0 C42.27 -0.41, 68.54 0.36, 87.5 0 M87.5 0 C98.9 -1.03, 105.23 4.63, 105 17.5 M87.5 0 C99.22 -2.25, 103.8 7.03, 105 17.5 M105 17.5 C106.04 29.55, 104.52 41.91, 105 52.5 M105 17.5 C105.53 30.64, 105.1 46.11, 105 52.5 M105 52.5 C104.71 63.77, 99.85 68.65, 87.5 70 M105 52.5 C104.35 62.81, 97.77 68.18, 87.5 70 M87.5 70 C66.36 71.51, 47.34 67.94, 17.5 70 M87.5 70 C67.49 69.91, 46.86 70.01, 17.5 70 M17.5 70 C5.29 71.91, 1.79 64.88, 0 52.5 M17.5 70 C8.09 71.27, -1.55 63.62, 0 52.5 M0 52.5 C1.85 37.88, -1.18 27.86, 0 17.5 M0 52.5 C-0.44 39.26, 0.48 26.7, 0 17.5 M0 17.5 C-1.28 7.56, 5.43 -0.66, 17.5 0 M0 17.5 C-1.28 7.89, 8.09 2.16, 17.5 0" stroke="#000000" stroke-width="1" fill="none"></path></g><g transform="translate(87.88794112509459 105.99446850347522) rotate(0 44.119972229003906 30)"><text x="44.119972229003906" y="0" font-family="Virgil, Segoe UI Emoji" font-size="16px" fill="#000000" text-anchor="middle" style="white-space: pre;" direction="ltr" dominant-baseline="text-before-edge">Federated </text><text x="44.119972229003906" y="20" font-family="Virgil, Segoe UI Emoji" font-size="16px" fill="#000000" text-anchor="middle" style="white-space: pre;" direction="ltr" dominant-baseline="text-before-edge">Identity </text><text x="44.119972229003906" y="40" font-family="Virgil, Segoe UI Emoji" font-size="16px" fill="#000000" text-anchor="middle" style="white-space: pre;" direction="ltr" dominant-baseline="text-before-edge">Credential</text></g><g stroke-linecap="round" transform="translate(592.1252143082625 15.739978481667094) rotate(0 119.5 228.5)"><path d="M32 0 M32 0 C101.3 -3.07, 167.91 -0.4, 207 0 M207 0 C227.11 1.52, 240.63 8.86, 239 32 M239 32 C239.87 122.13, 239.51 212.88, 239 425 M239 425 C239.81 447.64, 227.06 458.72, 207 457 M207 457 C159.84 457.99, 110.97 455.43, 32 457 M32 457 C9.98 457.29, 0.38 445.9, 0 425 M0 425 C0.81 314.76, -0.33 203.78, 0 32 M0 32 C0.77 11.16, 10.63 -0.19, 32 0" stroke="#000000" stroke-width="1.5" fill="none" stroke-dasharray="8 9"></path></g><g transform="translate(597.1252143082625 20.739978481667094) rotate(0 47.28997039794922 12.5)"><text x="0" y="0" font-family="Virgil, Segoe UI Emoji" font-size="20px" fill="#000000" text-anchor="start" style="white-space: pre;" direction="ltr" dominant-baseline="text-before-edge">Tenant 2</text></g><g stroke-linecap="round" transform="translate(657.0626889570744 348.32786791141825) rotate(0 54.38582586367511 49.00431747265111)"><path d="M24.5 0 M24.5 0 C37.98 1.63, 54.22 -0.04, 84.27 0 M24.5 0 C44.95 -0.7, 63.14 -0.59, 84.27 0 M84.27 0 C101.85 -1.08, 108.55 8.42, 108.77 24.5 M84.27 0 C101.07 -0.29, 109.61 9.9, 108.77 24.5 M108.77 24.5 C109.96 39.12, 110.4 57.86, 108.77 73.51 M108.77 24.5 C109.25 35.33, 109.94 46.2, 108.77 73.51 M108.77 73.51 C110.05 88.53, 100.22 99.22, 84.27 98.01 M108.77 73.51 C108.24 88.82, 101.87 95.74, 84.27 98.01 M84.27 98.01 C70.69 100.52, 54.44 99.98, 24.5 98.01 M84.27 98.01 C60.54 96.85, 36.3 98.02, 24.5 98.01 M24.5 98.01 C9.04 96.82, -1.83 89.5, 0 73.51 M24.5 98.01 C10.38 99.17, 1.73 90.15, 0 73.51 M0 73.51 C-1.23 59.39, -1.47 48.18, 0 24.5 M0 73.51 C1.46 62.54, 0.02 51.51, 0 24.5 M0 24.5 C0.31 9.07, 8.08 -1.25, 24.5 0 M0 24.5 C1.39 8.47, 7.81 -1.46, 24.5 0" stroke="#000000" stroke-width="1" fill="none"></path></g><g transform="translate(664.0805338637188 387.3321853840698) rotate(0 47.36798095703125 10)"><text x="47.36798095703125" y="0" font-family="Virgil, Segoe UI Emoji" font-size="16px" fill="#000000" text-anchor="middle" style="white-space: pre;" direction="ltr" dominant-baseline="text-before-edge">Key Vault 2</text></g><g stroke-linecap="round" transform="translate(644.9485148207491 223.1540229950042) rotate(0 66.5 42.5)"><path d="M21.25 0 M21.25 0 C57.9 -0.13, 95.01 1.2, 111.75 0 M21.25 0 C47.32 -0.47, 72.04 0.2, 111.75 0 M111.75 0 C126.33 -0.25, 133.73 8.59, 133 21.25 M111.75 0 C126.52 -0.57, 131.98 8.59, 133 21.25 M133 21.25 C131.94 32.24, 131.54 41.35, 133 63.75 M133 21.25 C134.02 31.84, 133.19 44.35, 133 63.75 M133 63.75 C132.54 77.03, 127.02 83.03, 111.75 85 M133 63.75 C131.88 77.98, 128.19 86.64, 111.75 85 M111.75 85 C77.8 84.39, 39.37 85.37, 21.25 85 M111.75 85 C93.67 84.6, 73.8 85.02, 21.25 85 M21.25 85 C9.01 86.01, 1.51 78.19, 0 63.75 M21.25 85 C6.36 84.79, 0.42 76.45, 0 63.75 M0 63.75 C-1.06 51.15, -1.23 44.3, 0 21.25 M0 63.75 C0.34 49.95, 0.14 34.62, 0 21.25 M0 21.25 C1.21 7.34, 6.77 -1.27, 21.25 0 M0 21.25 C0.39 5.96, 8.23 -0.84, 21.25 0" stroke="#000000" stroke-width="1" fill="none"></path></g><g transform="translate(653.8245524184053 235.6540229950042) rotate(0 57.62396240234375 30)"><text x="57.62396240234375" y="0" font-family="Virgil, Segoe UI Emoji" font-size="16px" fill="#000000" text-anchor="middle" style="white-space: pre;" direction="ltr" dominant-baseline="text-before-edge">Key Vault </text><text x="57.62396240234375" y="20" font-family="Virgil, Segoe UI Emoji" font-size="16px" fill="#000000" text-anchor="middle" style="white-space: pre;" direction="ltr" dominant-baseline="text-before-edge">Access Policy: </text><text x="57.62396240234375" y="40" font-family="Virgil, Segoe UI Emoji" font-size="16px" fill="#000000" text-anchor="middle" style="white-space: pre;" direction="ltr" dominant-baseline="text-before-edge">Get Secrets</text></g><g stroke-linecap="round"><g transform="translate(188.11827592324607 123.99204567907418) rotate(0 99.51938493934108 39.11000690475703)"><path d="M0.61 -0.97 C26.67 -0.93, 123.25 -15.34, 156.22 -0.92 C189.18 13.5, 191.26 71.13, 198.42 85.55" stroke="#000000" stroke-width="1.5" fill="none" stroke-dasharray="8 9"></path></g><g transform="translate(188.11827592324607 123.99204567907418) rotate(0 99.51938493934108 39.11000690475703)"><path d="M179.53 60.42 C186.87 68.54, 190.82 76.9, 198.5 83.58" stroke="#000000" stroke-width="1.5" fill="none"></path></g><g transform="translate(188.11827592324607 123.99204567907418) rotate(0 99.51938493934108 39.11000690475703)"><path d="M199.34 55.06 C200.92 64.82, 199.17 74.72, 198.5 83.58" stroke="#000000" stroke-width="1.5" fill="none"></path></g></g><mask></mask><g stroke-linecap="round"><g transform="translate(137.41316459174823 217.8300901314251) rotate(0 -1.4122563412290674 -14.971932944658874)"><path d="M-1 0 C-1.36 -5.01, -1.87 -24.97, -1.82 -29.95" stroke="#000000" stroke-width="1.5" fill="none" stroke-dasharray="8 9"></path></g><g transform="translate(137.41316459174823 217.8300901314251) rotate(0 -1.4122563412290674 -14.971932944658874)"><path d="M3.33 -16.28 C0.61 -19.45, -0.93 -26.64, -0.54 -30.79" stroke="#000000" stroke-width="1.5" fill="none"></path></g><g transform="translate(137.41316459174823 217.8300901314251) rotate(0 -1.4122563412290674 -14.971932944658874)"><path d="M-6.65 -16.16 C-6.11 -19.29, -4.38 -26.52, -0.54 -30.79" stroke="#000000" stroke-width="1.5" fill="none"></path></g></g><mask></mask><g stroke-linecap="round"><g transform="translate(137.01096913286528 308.91677571473156) rotate(0 -0.8476434390934173 15.928317443681863)"><path d="M-0.07 -0.92 C-0.52 4.47, -1.58 26.97, -1.63 32.77" stroke="#000000" stroke-width="1.5" fill="none" stroke-dasharray="8 9"></path></g><g transform="translate(137.01096913286528 308.91677571473156) rotate(0 -0.8476434390934173 15.928317443681863)"><path d="M-8.05 15.58 C-5.04 23.45, -1.43 28.54, -2.61 31.21" stroke="#000000" stroke-width="1.5" fill="none"></path></g><g transform="translate(137.01096913286528 308.91677571473156) rotate(0 -0.8476434390934173 15.928317443681863)"><path d="M3.24 15.93 C1.84 23.65, 1.03 28.61, -2.61 31.21" stroke="#000000" stroke-width="1.5" fill="none"></path></g></g><mask></mask><g stroke-linecap="round" transform="translate(619.3038976673788 67.934990460868) rotate(0 89.00000000000023 57)"><path d="M28.5 0 M28.5 0 C75.53 2.69, 118.69 0.55, 149.5 0 M28.5 0 C62.01 -0.11, 93.84 -0.01, 149.5 0 M149.5 0 C169.76 -0.66, 176 8.14, 178 28.5 M149.5 0 C169.87 0.59, 176.66 7.44, 178 28.5 M178 28.5 C177.33 44.88, 178.31 56.43, 178 85.5 M178 28.5 C179 48.52, 179.01 69.23, 178 85.5 M178 85.5 C179.81 102.83, 170.24 115.79, 149.5 114 M178 85.5 C179.79 104.78, 168.96 116.13, 149.5 114 M149.5 114 C101.11 115.18, 53.16 113.62, 28.5 114 M149.5 114 C112.6 113.56, 76.32 113.72, 28.5 114 M28.5 114 C8.53 115.61, 1.43 105.75, 0 85.5 M28.5 114 C11.19 113.29, 0.24 105.93, 0 85.5 M0 85.5 C-1.82 65.12, -1.48 42.3, 0 28.5 M0 85.5 C-0.64 73.82, -0.04 61.41, 0 28.5 M0 28.5 C1.06 8.08, 10.59 -1.61, 28.5 0 M0 28.5 C1.98 10.96, 8.05 2.05, 28.5 0" stroke="#000000" stroke-width="1" fill="none"></path></g><g transform="translate(648.6959417347616 72.934990460868) rotate(0 59.607955932617415 10)"><text x="59.60795593261719" y="0" font-family="Virgil, Segoe UI Emoji" font-size="16px" fill="#000000" text-anchor="middle" style="white-space: pre;" direction="ltr" dominant-baseline="text-before-edge">Workload UAMI</text></g><g stroke-linecap="round" transform="translate(651.9192553140974 99.50975345313418) rotate(0 52.50000000000023 35)"><path d="M17.5 0 M17.5 0 C44.1 -0.76, 73.34 1.67, 87.5 0 M17.5 0 C44.53 -0.94, 69.29 -1.29, 87.5 0 M87.5 0 C100.36 0.52, 103.84 4.04, 105 17.5 M87.5 0 C98.09 -1.23, 104.27 5.41, 105 17.5 M105 17.5 C106.37 31.72, 106.84 47.18, 105 52.5 M105 17.5 C106.23 24.74, 106.19 34.54, 105 52.5 M105 52.5 C106.56 64.41, 99.57 71.85, 87.5 70 M105 52.5 C107.23 63.39, 101.06 69.58, 87.5 70 M87.5 70 C65.96 69.36, 44.9 69.32, 17.5 70 M87.5 70 C71.9 70.33, 57.99 70.15, 17.5 70 M17.5 70 C7.31 69.38, 0.2 65.41, 0 52.5 M17.5 70 C7.73 71.4, -2.19 62.47, 0 52.5 M0 52.5 C-1.64 39.51, 0.42 25.25, 0 17.5 M0 52.5 C0.55 40.61, 0.56 29.32, 0 17.5 M0 17.5 C1.72 7.11, 4.58 1.78, 17.5 0 M0 17.5 C-0.74 3.71, 7.51 -2.27, 17.5 0" stroke="#000000" stroke-width="1" fill="none"></path></g><g transform="translate(660.2992830850935 104.50975345313418) rotate(0 44.119972229004134 30)"><text x="44.119972229003906" y="0" font-family="Virgil, Segoe UI Emoji" font-size="16px" fill="#000000" text-anchor="middle" style="white-space: pre;" direction="ltr" dominant-baseline="text-before-edge">Federated </text><text x="44.119972229003906" y="20" font-family="Virgil, Segoe UI Emoji" font-size="16px" fill="#000000" text-anchor="middle" style="white-space: pre;" direction="ltr" dominant-baseline="text-before-edge">Identity </text><text x="44.119972229003906" y="40" font-family="Virgil, Segoe UI Emoji" font-size="16px" fill="#000000" text-anchor="middle" style="white-space: pre;" direction="ltr" dominant-baseline="text-before-edge">Credential</text></g><g stroke-linecap="round"><g transform="translate(648.1730511304345 122.28303735884674) rotate(0 -104.88352976651959 37.086746004669294)"><path d="M-0.87 -0.69 C-28.73 -1.61, -132.41 -21.08, -167.08 -6.61 C-201.75 7.86, -202.08 70.68, -208.89 86.12" stroke="#000000" stroke-width="1.5" fill="none" stroke-dasharray="8 9"></path></g><g transform="translate(648.1730511304345 122.28303735884674) rotate(0 -104.88352976651959 37.086746004669294)"><path d="M-213.8 55.28 C-211.96 64.66, -210.46 75.22, -208.93 87.47" stroke="#000000" stroke-width="1.5" fill="none"></path></g><g transform="translate(648.1730511304345 122.28303735884674) rotate(0 -104.88352976651959 37.086746004669294)"><path d="M-193.79 59.83 C-197.97 67.68, -202.53 76.87, -208.93 87.47" stroke="#000000" stroke-width="1.5" fill="none"></path></g></g><mask></mask><g stroke-linecap="round"><g transform="translate(707.9853447422115 218.70104398394142) rotate(0 -0.05425856150668551 -16.451537001274573)"><path d="M0.15 -0.73 C-0.07 -6.14, -0.13 -27.21, -0.26 -32.17" stroke="#000000" stroke-width="1.5" fill="none" stroke-dasharray="8 9"></path></g><g transform="translate(707.9853447422115 218.70104398394142) rotate(0 -0.05425856150668551 -16.451537001274573)"><path d="M4.36 -17.8 C2.2 -24, 2.25 -29.02, 0.79 -30.92" stroke="#000000" stroke-width="1.5" fill="none"></path></g><g transform="translate(707.9853447422115 218.70104398394142) rotate(0 -0.05425856150668551 -16.451537001274573)"><path d="M-6.4 -17.65 C-4.39 -23.92, -0.18 -29, 0.79 -30.92" stroke="#000000" stroke-width="1.5" fill="none"></path></g></g><mask></mask><g stroke-linecap="round"><g transform="translate(712.8034577353706 311.54329402403164) rotate(0 -0.691779258164388 17.17292722016873)"><path d="M0.11 -1.02 C-0.21 4.88, -1.19 29.31, -1.49 35.36" stroke="#000000" stroke-width="1.5" fill="none" stroke-dasharray="8 9"></path></g><g transform="translate(712.8034577353706 311.54329402403164) rotate(0 -0.691779258164388 17.17292722016873)"><path d="M-8.33 17.27 C-5.3 22.66, -3.61 28.38, -0.81 36.15" stroke="#000000" stroke-width="1.5" fill="none"></path></g><g transform="translate(712.8034577353706 311.54329402403164) rotate(0 -0.691779258164388 17.17292722016873)"><path d="M3.81 17.81 C2.79 23.03, 0.43 28.57, -0.81 36.15" stroke="#000000" stroke-width="1.5" fill="none"></path></g></g><mask></mask><g stroke-linecap="round"><g transform="translate(195.1111533108533 398.5639893566831) rotate(0 87.2651313731917 -37.86688353691443)"><path d="M-0.61 -0.77 C15.46 -2.66, 67.16 1.9, 96.45 -10.83 C125.74 -23.56, 162.04 -66.05, 175.14 -77.17 M1.27 1.44 C17.69 -0.83, 69.81 0.38, 98.62 -12.48 C127.42 -25.34, 161.38 -65.02, 174.1 -75.71" stroke="#000000" stroke-width="1" fill="none"></path></g><g transform="translate(195.1111533108533 398.5639893566831) rotate(0 87.2651313731917 -37.86688353691443)"><path d="M159.69 -50.45 C166.35 -57.77, 169.34 -66.19, 173.86 -76.99 M161.96 -47.74 C165.72 -59.03, 171.55 -69.28, 174.27 -76.14" stroke="#000000" stroke-width="1" fill="none"></path></g><g transform="translate(195.1111533108533 398.5639893566831) rotate(0 87.2651313731917 -37.86688353691443)"><path d="M145.42 -65.2 C156.5 -67.95, 163.84 -71.87, 173.86 -76.99 M147.68 -62.48 C157.13 -67.91, 168.63 -72.31, 174.27 -76.14" stroke="#000000" stroke-width="1" fill="none"></path></g></g><mask></mask><g stroke-linecap="round"><g transform="translate(653.7994921712066 398.7551211117834) rotate(0 -110.92355670038523 -37.99061344666461)"><path d="M-0.97 0.76 C-28.53 -0.33, -127.41 7.64, -164.19 -5.51 C-200.97 -18.66, -212.16 -66.2, -221.67 -78.15 M0.72 0.11 C-27.08 -0.78, -127.82 5.72, -165.03 -7.13 C-202.25 -19.97, -213.25 -64.91, -222.57 -76.95" stroke="#000000" stroke-width="1" fill="none"></path></g><g transform="translate(653.7994921712066 398.7551211117834) rotate(0 -110.92355670038523 -37.99061344666461)"><path d="M-199.05 -56.5 C-207.72 -65.42, -218.54 -72.72, -221.37 -78.33 M-199.42 -56.25 C-207.4 -64.11, -215.78 -69, -221.92 -77.42" stroke="#000000" stroke-width="1" fill="none"></path></g><g transform="translate(653.7994921712066 398.7551211117834) rotate(0 -110.92355670038523 -37.99061344666461)"><path d="M-217.19 -46.9 C-218.75 -59.49, -222.36 -70.6, -221.37 -78.33 M-217.57 -46.65 C-219.61 -57.81, -222.03 -65.86, -221.92 -77.42" stroke="#000000" stroke-width="1" fill="none"></path></g></g><mask></mask></svg>